<?xml version="1.0" encoding="utf-8"?>
<!-- Generator: Adobe Illustrator 19.0.0, SVG Export Plug-In . SVG Version: 6.00 Build 0)  -->
<svg version="1.1" id="Layer_1" xmlns="http://www.w3.org/2000/svg" xmlns:xlink="http://www.w3.org/1999/xlink" x="0px" y="0px"
	 viewBox="0 0 960 560" style="enable-background:new 0 0 960 560;" xml:space="preserve">
<g id="XMLID_2_">
	<g id="XMLID_20_">
		<path id="XMLID_24_" d="M608,479.9c-7.5-9.8-16.5-20.8-18-33.5c-0.6-5,0-10.4,2.3-15c2.8-5.5,8-8.1,13.5-10.3
			c8.7-3.6,15.7-7.4,23-13.4c7.6-6.3,14.7-13.4,21.4-20.7c13.5-14.6,24.7-30.4,32.7-48.7c9.2-21.1,14.9-43.5,17.5-66.4
			c4.5-38.6,0.4-80.9-19.6-115.1c-17.4-29.7-47.4-46.4-79.9-55.1c-47.8-12.8-99.9-14.6-145,8.5c-19,9.7-36.8,24.2-46,43.9
			c-6.5,13.9-8.2,28.8-8.8,44c-0.1,2.8-0.2,5.6-0.4,8.4c-0.1,1.4-0.2,2.7-0.4,4.1c0.2-1.5-0.3,1.8-0.5,2.3c-1.1,2.6-4.1,5.5-5.8,7.7
			c-8.2,10.7-16.4,21.4-24.6,32.1c-5.7,7.5-12.8,14.9-17.4,23.1c-5.5,9.9-3.4,22.4,6.1,28.9c7.6,5.3,17.6,4.9,24.4,11.5
			c13.7,13.4,13.1,36.1,14.9,53.7c1.8,17.7,3.3,40.2,19.3,51.3c15,10.4,33.7,5.5,50.4,9.2c23,5.1,17,34.1,5,47.6
			c-8.1,9.1-18.4,15.6-28.9,21.6c-8,4.6-0.8,16.9,7.2,12.4c21.1-11.9,42.7-27.9,46.4-53.6c1.6-11.3-0.6-23.6-8.4-32.4
			c-5.6-6.2-13.7-9.2-21.8-10.4c-9.1-1.3-18.3-0.9-27.4-1.9c-6.9-0.8-14.6-3-18.8-8.6c-4.9-6.5-6-16.2-7.2-24
			c-1.4-9.3-2-18.6-2.9-28c-1.9-19.4-6.8-43.1-25.5-53.4c-4.1-2.3-8.6-3.5-13-4.9c-2.7-0.9-6.3-1.8-7.7-4.6
			c-2.4-4.8,1.7-9.3,4.5-12.9c13.9-18.2,27.9-36.4,41.8-54.6c6.9-9,5-22.8,5.7-33.5c1-14.9,5.1-29.6,14.8-41.7
			c14.8-18.4,37.8-29.5,60.2-35.6c24.4-6.6,49.3-6.7,74.1-3c34.2,5.1,71,14.6,94.2,42.1c22.3,26.3,29,64.3,28.5,97.8
			c-0.6,41.5-11.6,86.5-38.8,118.9c-6.5,7.7-13.3,15.1-20.6,22.1c-5.8,5.6-11.9,11.4-19.1,15.3c-10,5.3-20.6,7.3-27.2,17.6
			c-6,9.3-6.5,21.7-3.4,32.1c3.7,12.3,11.8,22.2,19.8,31.9C602.9,492.3,612.1,485.3,608,479.9L608,479.9z"/>
	</g>
</g>
<g id="XMLID_1_">
	<g id="XMLID_124_">
		<path id="XMLID_136_" d="M472,238.8c-17.6,0.4-34.6-14.4-35-32.4c-0.4-17.9,15.4-33.7,33.1-34.2c2-0.1,4-1.8,3.9-3.9
			c-0.6-10,6.2-20.2,16.3-22.2c9.6-1.9,19.8,4.4,23,13.4c1.3,3.5,5.2,3.7,7.4,1c11.1-14.5,34.3-10.9,40.7,6.1c1.1,3,4.5,4.1,7,1.9
			c9.2-8.3,24.9-16.1,36.1-7.6c8.7,6.5,21.1,19.6,16.8,31.5c-0.9,2.5,1.5,5.7,4.1,5.4c10.1-1,15.9,6.3,18.4,15.4
			c2.1,7.7,4.9,19.2-3.9,23.5c-4.2,2.1-1.8,7.8,2.2,8.1c4.9,0.4,6.2,8.8,6.8,12.4c0.9,5.3,1.2,10.5-1.3,15.4
			c-5.2,10-14.5,17.7-22.9,24.9c-1.8,1.6-3.5,3.2-5.9,3.7c-2.1,0.4-4.2,0.1-6.2,0.8c-5.8,1.9-8.8,8.6-10.9,13.9
			c-5.2,13.5-3.5,29.2,4.2,41.4c3.1,4.9,10.9,0.4,7.8-4.6c-4.5-7.2-6.6-15.4-5.8-23.8c0.5-5.2,2.6-16.9,8.5-18.6
			c2.3-0.6,4.6-0.2,6.9-1.1c2.8-1,4.9-3,7.1-4.9c4.2-3.7,8.5-7.4,12.4-11.4c8.2-8.3,16.2-18,15.5-30.4c-0.6-10.3-3.3-25.6-16.1-26.5
			c0.7,2.7,1.5,5.4,2.2,8.1c12.7-6.4,11.1-21.8,7.9-33.3c-3.5-12.5-12.8-23-26.7-21.7c1.4,1.8,2.8,3.6,4.1,5.4
			c5.6-15.8-9.1-32.6-20.9-41.2c-14.6-10.6-34.5-1.7-46.3,9c2.3,0.6,4.7,1.2,7,1.9c-4.1-10.8-13.3-19.2-24.9-21
			c-12.1-1.9-23.5,3.6-30.8,13.1c2.5,0.3,4.9,0.6,7.4,1c-4.6-12.8-17.9-21.5-31.6-19.3c-14.2,2.3-24.3,16.1-23.4,30.1
			c1.3-1.3,2.6-2.6,3.9-3.9c-21.8,0.6-41.5,19.8-40.9,42c0.6,22.1,21,40.5,42.8,40C476.9,246.3,476.9,238.7,472,238.8L472,238.8z"/>
	</g>
</g>
<g id="XMLID_4_">
	<g id="XMLID_27_">
		<path id="XMLID_3_" d="M470.3,248.4c6.6,18.7,29,26.2,45.2,14.3c-1.8-1.1-3.7-2.1-5.5-3.2c2.1,21.1,26.8,30.7,42.4,16.1
			c-2-1.6-4-3.1-6-4.7c-3.8,6.1-1,13.9,4.9,17.6c3.6,2.2,7.7,3,11.8,3.5c4.2,0.5,9.9,0.6,13.1,3.9c3.3,3.3,3,9.2,3.3,13.5
			c0.5,5.5,0.9,11,1.4,16.6s0.9,11,1.4,16.6c0.4,5.4,0.3,11.3,2.1,16.4c1,2.7,5.6,3.4,6.2,0c0.9-4.8,0.1-9.6-0.3-14.5
			c-0.4-5.2-0.9-10.4-1.3-15.6c-0.8-9.5-0.9-19.5-2.6-28.9c-1.4-7.7-6.5-12.6-14-14.4c-4.3-1.1-25.2-1.6-19.5-10.7
			c2.4-3.8-2.9-7.6-6-4.7c-10.5,9.9-27.9,3.9-29.6-10.6c-0.3-2.4-3.1-5.1-5.5-3.2c-12.2,9.3-29.7,5.1-35.2-9.7
			C475.2,242.7,468.9,244.4,470.3,248.4L470.3,248.4z"/>
	</g>
</g>
<g id="XMLID_5_">
	<g id="XMLID_34_">
		<path id="XMLID_9_" d="M456.8,213.4c13.6,3.5,28.2,6.3,42,2.6c13.1-3.5,21.8-15,34.7-18.5c4.9-1.3,2.8-9-2.1-7.6
			c-12,3.4-20,13.5-31.4,17.8c-13.3,5-28,2-41.3-1.2C454.2,205.3,452.3,212.2,456.8,213.4L456.8,213.4z"/>
	</g>
</g>
<g id="XMLID_6_">
	<g id="XMLID_41_">
		<path id="XMLID_15_" d="M474.6,196.6c1.2,5,2.2,10,4,14.8c1.1,3.1,6.6,3,6.2-0.8c-0.6-5.4-1.8-10.6-3.1-15.9
			C480.7,190,473.5,192,474.6,196.6L474.6,196.6z"/>
	</g>
</g>
<g id="XMLID_7_">
	<g id="XMLID_48_">
		<path id="XMLID_16_" d="M499.9,215.7c3.6,6.9,1.5,12.7-1.1,19.4c-1.2,3,3.1,5,5.2,3c6.7-6.6,6-18.2,1.9-26
			C503.9,208.2,497.8,211.8,499.9,215.7L499.9,215.7z"/>
	</g>
</g>
<g id="XMLID_8_">
	<g id="XMLID_55_">
		<path id="XMLID_17_" d="M528.9,198.1c-1.3-9-4.5-21.7-12-27.4c-2.1-1.6-5.1,1.1-4.4,3.4c1.3,4.3,4.3,7.9,6,12.1
			c1.9,4.4,3,9.1,3.8,13.8C522.9,204.3,529.5,202.5,528.9,198.1L528.9,198.1z"/>
	</g>
</g>
<g id="XMLID_10_">
	<g id="XMLID_62_">
		<path id="XMLID_18_" d="M481.4,196.5c-2.4-8,1.9-15.3,9-19c3.4-1.7,1-7.7-2.7-6.3c-10.6,4-16.1,16.3-12.8,27
			C476.2,202.4,482.7,200.7,481.4,196.5L481.4,196.5z"/>
	</g>
</g>
<g id="XMLID_12_">
	<g id="XMLID_69_">
		<path id="XMLID_31_" d="M533.2,198.9c12.5,0.4,24,8.7,36.7,5.6c7.9-1.9,18.4-12.4,12.8-21.1c-1.5-2.4-6.3-2.5-6.8,0.9
			c-0.5,4-0.2,7.2-3.7,10c-3.7,3-8.7,3-13.2,2.3c-8.8-1.4-16.8-5.3-25.9-5.5C528.1,191,528.1,198.7,533.2,198.9L533.2,198.9z"/>
	</g>
</g>
<g id="XMLID_14_">
	<g id="XMLID_76_">
		<path id="XMLID_38_" d="M560.4,211.1c3.5,3.5,7.4,7.7,2.1,11.3c-2.8,1.9-5.5,3.7-7.9,6c-5.2,5.2-8.8,11.8-10.7,18.9
			c-1.2,4.9,6.3,7,7.5,2.1c1.3-5.1,3.5-9.8,7-13.9c3.1-3.6,7.3-5.5,10.7-8.6c7.4-6.7,2.2-15.5-3.5-21.1
			C562.2,202.4,556.9,207.7,560.4,211.1L560.4,211.1z"/>
	</g>
</g>
<g id="XMLID_25_">
	<g id="XMLID_83_">
		<path id="XMLID_45_" d="M567.5,226.9c-5.1,14.4-3.4,30.3,4.6,43.3c2.5,4,8.8,0.3,6.3-3.7c-7.2-11.4-8.6-25-4.2-37.7
			C575.8,224.4,569,222.6,567.5,226.9L567.5,226.9z"/>
	</g>
</g>
<g id="XMLID_32_">
	<g id="XMLID_90_">
		<path id="XMLID_52_" d="M567.3,220.7c6.8,10,19.7,12.5,26.9,22.2c3.9,5.2,6.3,11.7,6.5,18.2c0.2,7.4-3.1,13-4.5,20
			c-0.7,3.5,3,5.4,5.7,3.3c5.5-4.4,7.2-12.6,7.8-19.2c0.6-7.4-1-14.8-4.4-21.4c-3.1-6.2-7.9-11.4-13.6-15.2c-5.7-3.9-13-6.3-17-12.1
			C571.5,212.1,564.2,216.2,567.3,220.7L567.3,220.7z"/>
	</g>
</g>
<g id="XMLID_39_">
	<g id="XMLID_97_">
		<path id="XMLID_59_" d="M597.5,238.4c6.6,0.7,13.1-1.8,18-6.3c3.7-3.4,9.7-12.1,5.9-17c-1.3-1.7-3.5-2.3-5.2-0.7
			c-1.8,1.7-1.8,3.5-2.5,5.7c-0.7,2.2-2.1,4.1-3.7,5.8c-3.4,3.4-7.8,4.8-12.5,4.3C592.2,229.5,592.2,237.8,597.5,238.4L597.5,238.4z
			"/>
	</g>
</g>
<g id="XMLID_46_">
	<g id="XMLID_104_">
		<path id="XMLID_66_" d="M596.8,247.4c-1.6,5.1-5.8,7.6-10.7,8.9c-3.7,0.9-2.9,6.6,0.9,6.7c7.9,0.1,14.7-6.3,16.8-13.6
			C605.1,244.8,598.2,242.9,596.8,247.4L596.8,247.4z"/>
	</g>
</g>
<g id="XMLID_53_">
	<g id="XMLID_111_">
		<path id="XMLID_73_" d="M605.7,263.3c3.9,7.9,12.3,11.7,20.8,10.5c4.7-0.7,2.7-7.9-2-7.2c-5.3,0.8-10.2-2.4-12.5-7
			C609.9,255.4,603.7,259.1,605.7,263.3L605.7,263.3z"/>
	</g>
</g>
<g id="XMLID_60_">
	<g id="XMLID_118_">
		<path id="XMLID_80_" d="M534.5,200.9c-0.2,4.1-1.5,8-3.8,11.4c-2.1,3.2-5.5,5.1-7.7,8.2c-1.7,2.3,1.1,5,3.4,4.5
			c4.5-1,8.3-5.9,10.5-9.7c2.6-4.4,3.9-9.3,4.2-14.3C541.3,196.6,534.7,196.7,534.5,200.9L534.5,200.9z"/>
	</g>
</g>
<g id="XMLID_67_">
	<g id="XMLID_125_">
		<path id="XMLID_87_" d="M508.1,233.5c3.5,1.6,6.2,4.2,7.7,7.7c1.5,3.5,0.3,7,1.2,10.5c0.6,2.2,3.7,3.2,5.3,1.4
			c3.5-3.9,2.2-10.5,0.3-14.9c-2.1-4.9-5.8-8.9-10.7-11.2C507.5,225.1,503.8,231.5,508.1,233.5L508.1,233.5z"/>
	</g>
</g>
<g id="XMLID_74_">
	<g id="XMLID_132_">
		<path id="XMLID_88_" d="M579.9,203.6c4.2,4.6,10.5,6.8,16.6,5.1c4.5-1.2,11.4-5.7,9.9-11.2c-0.4-1.4-2.1-2.5-3.6-2
			c-3.1,1.1-4.2,4.3-7.2,5.6c-3.8,1.7-7.8,0.3-10.6-2.6C581.8,195,576.8,200.1,579.9,203.6L579.9,203.6z"/>
	</g>
</g>
</svg>
